<svg width="149" height="174" viewBox="0 0 149 174" fill="none" xmlns="http://www.w3.org/2000/svg">
<path d="M118.778 3.74999C134.624 11.75 138.794 36.25 142.964 58C147.134 80 151.026 99.5 145.466 116.5C139.628 133.25 124.06 147.5 106.546 157.5C88.754 167.75 68.738 173.75 49.556 173C30.096 172.5 11.192 165.25 -2.42999 154C-16.052 142.75 -24.392 127.25 -30.23 111.25C-36.068 95 -39.404 78 -39.404 57.5C-39.126 36.75 -35.512 12.25 -20.222 4.25C-4.93199 -3.75 22.034 4.49999 49 4.49999C75.966 4.24999 103.21 -4.25001 118.778 3.74999Z" fill="url(#paint0_linear_355_324)"/>
<defs>
<linearGradient id="paint0_linear_355_324" x1="-39.404" y1="173.063" x2="132.742" y2="-13.9255" gradientUnits="userSpaceOnUse">
<stop stop-color="#0029FF"/>
<stop offset="1" stop-color="#78B6FF"/>
</linearGradient>
</defs>
</svg>
