<svg width="375" height="344" viewBox="0 0 375 344" fill="none" xmlns="http://www.w3.org/2000/svg">
<g filter="url(#filter0_d_215_299)">
<path d="M-76 329.87L-58 309.141C-40 288.411 -4 246.953 32 241.771C68 236.589 104 267.682 140 268.408C176 269.03 212 239.387 248 240.216C284 241.045 320 272.554 356 287.168C392 301.885 428 299.812 446 298.776L464 297.74V-36H446C428 -36 392 -36 356 -36C320 -36 284 -36 248 -36C212 -36 176 -36 140 -36C104 -36 68 -36 32 -36C-4 -36 -40 -36 -58 -36H-76V329.87Z" fill="#768FFF"/>
</g>
<g filter="url(#filter1_d_215_299)">
<path d="M-76 226.224L-58 224.669C-40 223.115 -4 220.005 32 221.56C68 223.115 104 229.333 140 222.907C176 216.585 212 197.514 248 201.867C284 206.22 320 233.79 356 240.527C392 247.264 428 233.168 446 226.017L464 218.969V-36H446C428 -36 392 -36 356 -36C320 -36 284 -36 248 -36C212 -36 176 -36 140 -36C104 -36 68 -36 32 -36C-4 -36 -40 -36 -58 -36H-76V226.224Z" fill="#5F81FF"/>
</g>
<g filter="url(#filter2_d_215_299)">
<path d="M-76 149.526L-58 149.319C-40 149.215 -4 148.801 32 151.288C68 153.672 104 158.854 140 152.946C176 147.142 212 130.144 248 132.735C284 135.327 320 157.507 356 163.207C392 168.908 428 158.129 446 152.843L464 147.453V-36H446C428 -36 392 -36 356 -36C320 -36 284 -36 248 -36C212 -36 176 -36 140 -36C104 -36 68 -36 32 -36C-4 -36 -40 -36 -58 -36H-76V149.526Z" fill="#4273FF"/>
</g>
<g filter="url(#filter3_d_215_299)">
<path d="M-76 51.0625L-58 49.5078C-40 47.9531 -4 44.8438 32 40.4906C68 36.2411 104 30.6443 140 35.7229C176 40.6979 212 56.2448 248 60.7016C284 65.262 320 58.6286 356 55.4156C392 52.099 428 52.099 446 52.099H464V-36H446C428 -36 392 -36 356 -36C320 -36 284 -36 248 -36C212 -36 176 -36 140 -36C104 -36 68 -36 32 -36C-4 -36 -40 -36 -58 -36H-76V51.0625Z" fill="#0066FF" fill-opacity="0.27" shape-rendering="crispEdges"/>
</g>
<defs>
<filter id="filter0_d_215_299" x="-86" y="-42" width="560" height="385.87" filterUnits="userSpaceOnUse" color-interpolation-filters="sRGB">
<feFlood flood-opacity="0" result="BackgroundImageFix"/>
<feColorMatrix in="SourceAlpha" type="matrix" values="0 0 0 0 0 0 0 0 0 0 0 0 0 0 0 0 0 0 127 0" result="hardAlpha"/>
<feOffset dy="4"/>
<feGaussianBlur stdDeviation="5"/>
<feComposite in2="hardAlpha" operator="out"/>
<feColorMatrix type="matrix" values="0 0 0 0 0.516667 0 0 0 0 0.516667 0 0 0 0 0.516667 0 0 0 0.36 0"/>
<feBlend mode="normal" in2="BackgroundImageFix" result="effect1_dropShadow_215_299"/>
<feBlend mode="normal" in="SourceGraphic" in2="effect1_dropShadow_215_299" result="shape"/>
</filter>
<filter id="filter1_d_215_299" x="-86" y="-42" width="560" height="298.303" filterUnits="userSpaceOnUse" color-interpolation-filters="sRGB">
<feFlood flood-opacity="0" result="BackgroundImageFix"/>
<feColorMatrix in="SourceAlpha" type="matrix" values="0 0 0 0 0 0 0 0 0 0 0 0 0 0 0 0 0 0 127 0" result="hardAlpha"/>
<feOffset dy="4"/>
<feGaussianBlur stdDeviation="5"/>
<feComposite in2="hardAlpha" operator="out"/>
<feColorMatrix type="matrix" values="0 0 0 0 0.666667 0 0 0 0 0.666667 0 0 0 0 0.8 0 0 0 0.5 0"/>
<feBlend mode="normal" in2="BackgroundImageFix" result="effect1_dropShadow_215_299"/>
<feBlend mode="normal" in="SourceGraphic" in2="effect1_dropShadow_215_299" result="shape"/>
</filter>
<filter id="filter2_d_215_299" x="-82" y="-42" width="560" height="220.826" filterUnits="userSpaceOnUse" color-interpolation-filters="sRGB">
<feFlood flood-opacity="0" result="BackgroundImageFix"/>
<feColorMatrix in="SourceAlpha" type="matrix" values="0 0 0 0 0 0 0 0 0 0 0 0 0 0 0 0 0 0 127 0" result="hardAlpha"/>
<feOffset dx="4" dy="4"/>
<feGaussianBlur stdDeviation="5"/>
<feComposite in2="hardAlpha" operator="out"/>
<feColorMatrix type="matrix" values="0 0 0 0 0.658333 0 0 0 0 0.658333 0 0 0 0 0.658333 0 0 0 0.25 0"/>
<feBlend mode="normal" in2="BackgroundImageFix" result="effect1_dropShadow_215_299"/>
<feBlend mode="normal" in="SourceGraphic" in2="effect1_dropShadow_215_299" result="shape"/>
</filter>
<filter id="filter3_d_215_299" x="-92" y="-52" width="580" height="138.253" filterUnits="userSpaceOnUse" color-interpolation-filters="sRGB">
<feFlood flood-opacity="0" result="BackgroundImageFix"/>
<feColorMatrix in="SourceAlpha" type="matrix" values="0 0 0 0 0 0 0 0 0 0 0 0 0 0 0 0 0 0 127 0" result="hardAlpha"/>
<feOffset dx="4" dy="4"/>
<feGaussianBlur stdDeviation="10"/>
<feComposite in2="hardAlpha" operator="out"/>
<feColorMatrix type="matrix" values="0 0 0 0 0.666667 0 0 0 0 0.666667 0 0 0 0 0.8 0 0 0 0.5 0"/>
<feBlend mode="normal" in2="BackgroundImageFix" result="effect1_dropShadow_215_299"/>
<feBlend mode="normal" in="SourceGraphic" in2="effect1_dropShadow_215_299" result="shape"/>
</filter>
</defs>
</svg>
