<svg id="visual" viewBox="0 0 900 600" width="900" height="600" xmlns="http://www.w3.org/2000/svg" xmlns:xlink="http://www.w3.org/1999/xlink" version="1.1"><path d="M0 392L225 401L450 472L675 474L900 422L900 601L675 601L450 601L225 601L0 601Z" fill="#ffffff"></path><path d="M0 498L225 444L450 415L675 499L900 441L900 601L675 601L450 601L225 601L0 601Z" fill="#dadafe"></path><path d="M0 485L225 473L450 528L675 519L900 519L900 601L675 601L450 601L225 601L0 601Z" fill="#b3b7fc"></path><path d="M0 493L225 519L450 533L675 491L900 556L900 601L675 601L450 601L225 601L0 601Z" fill="#8795f9"></path><path d="M0 578L225 577L450 586L675 573L900 554L900 601L675 601L450 601L225 601L0 601Z" fill="#4b74f6"></path></svg>