<svg width="131" height="174" viewBox="0 0 131 174" fill="none" xmlns="http://www.w3.org/2000/svg">
<path d="M158.778 3.74999C174.624 11.75 178.794 36.25 182.964 58C187.134 80 191.026 99.5 185.466 116.5C179.628 133.25 164.06 147.5 146.546 157.5C128.754 167.75 108.738 173.75 89.556 173C70.096 172.5 51.192 165.25 37.57 154C23.948 142.75 15.608 127.25 9.77001 111.25C3.93201 95 0.596008 78 0.596008 57.5C0.874008 36.75 4.48801 12.25 19.778 4.25C35.068 -3.75 62.034 4.49999 89 4.49999C115.966 4.24999 143.21 -4.25001 158.778 3.74999Z" fill="url(#paint0_linear_355_322)" fill-opacity="0.9"/>
<defs>
<linearGradient id="paint0_linear_355_322" x1="0.596008" y1="173.063" x2="172.742" y2="-13.9255" gradientUnits="userSpaceOnUse">
<stop stop-color="#0029FF"/>
<stop offset="1" stop-color="#78B6FF"/>
</linearGradient>
</defs>
</svg>
